<svg width="15" height="18" viewBox="0 0 15 18" fill="none" xmlns="http://www.w3.org/2000/svg">
<path d="M1.3335 11.4042H0.708496H1.3335ZM3.61092 14.0695L3.52508 14.6886L3.61092 14.0695ZM12.0995 14.0695L12.0137 13.4504H12.0137L12.0995 14.0695ZM13.9883 9.98939L13.4515 10.3095L13.9883 9.98939ZM3.40795 5.73909C3.40795 3.28282 5.39915 1.29163 7.85541 1.29163V0.041626C4.70879 0.041626 2.15795 2.59247 2.15795 5.73909H3.40795ZM3.40795 7.48265V5.73909H2.15795V7.48265H3.40795ZM1.9585 11.4042C1.9585 11.003 2.06826 10.6293 2.25904 10.3094L1.18547 9.66912C0.882431 10.1772 0.708496 10.7714 0.708496 11.4042H1.9585ZM3.69677 13.4504C2.69707 13.3118 1.9585 12.4427 1.9585 11.4042H0.708496C0.708496 13.0373 1.87859 14.4603 3.52508 14.6886L3.69677 13.4504ZM7.85524 13.8099C6.61192 13.8099 5.0056 13.6319 3.69677 13.4504L3.52508 14.6886C4.84406 14.8715 6.52131 15.0599 7.85524 15.0599V13.8099ZM12.0137 13.4504C10.7049 13.6319 9.09855 13.8099 7.85524 13.8099V15.0599C9.18916 15.0599 10.8664 14.8715 12.1854 14.6886L12.0137 13.4504ZM13.752 11.4042C13.752 12.4427 13.0134 13.3118 12.0137 13.4504L12.1854 14.6886C13.8319 14.4603 15.002 13.0373 15.002 11.4042H13.752ZM13.4515 10.3095C13.6422 10.6294 13.752 11.003 13.752 11.4042H15.002C15.002 10.7714 14.8281 10.1774 14.5251 9.66928L13.4515 10.3095ZM12.3029 5.73909V7.48309H13.5529V5.73909H12.3029ZM7.85541 1.29163C10.3117 1.29163 12.3029 3.28282 12.3029 5.73909H13.5529C13.5529 2.59247 11.002 0.041626 7.85541 0.041626V1.29163ZM14.5251 9.66928C14.2677 9.23767 14.034 8.89183 13.8412 8.50564C13.6566 8.13586 13.5529 7.80598 13.5529 7.48309H12.3029C12.3029 8.07709 12.4945 8.6066 12.7228 9.06388C12.9428 9.50474 13.2393 9.95361 13.4515 10.3095L14.5251 9.66928ZM2.15795 7.48265C2.15795 7.80558 2.05417 8.13551 1.86955 8.50533C1.67674 8.89158 1.44292 9.23745 1.18547 9.66912L2.25904 10.3094C2.47131 9.95347 2.76783 9.50455 2.98794 9.06364C3.21624 8.60631 3.40795 8.07673 3.40795 7.48265H2.15795Z" fill="#1D1B20"/>
<path d="M9.66699 16.3616C9.27753 16.9473 8.61155 17.3334 7.8554 17.3334C7.09925 17.3334 6.43327 16.9473 6.04381 16.3616" stroke="#1D1B20" stroke-width="1.25" stroke-linecap="round"/>
</svg>
