<svg width="25" height="25" viewBox="0 0 25 25" fill="none" xmlns="http://www.w3.org/2000/svg">
<g clip-path="url(#clip0_357_8404)">
<g filter="url(#filter0_d_357_8404)">
<path d="M12.2884 2.71265L18.05 2.71293C20.1955 2.91683 21.8571 4.65194 21.9631 6.80891C22.0112 7.78818 21.998 8.97107 21.9631 9.95496C21.9436 10.5044 21.878 11.075 21.7724 11.6139C21.6706 12.1333 21.5365 12.7661 20.8381 12.5952C20.5867 12.5338 20.0797 12.3753 19.8495 12.2706C19.2497 11.9976 19.4889 11.5035 19.5712 11.0219C19.8063 9.64448 19.6322 8.21976 19.6879 6.82751C19.6 5.87988 18.8862 5.11433 17.9374 4.98962C13.4158 4.95585 8.88622 4.9552 4.36476 4.98989C3.43221 5.10831 2.71532 5.86369 2.61698 6.79356C2.63169 8.65152 2.45378 10.436 3.06845 12.2193C4.24449 15.6312 7.32337 17.6802 10.8912 17.7883C11.1978 17.7976 11.755 17.7215 11.9987 17.8832C12.174 17.9995 12.2741 18.1986 12.2893 18.4064C12.3092 18.6802 12.3154 19.193 12.2882 19.4614C12.2595 19.7445 12.0359 19.9832 11.7597 20.0426C10.02 20.1228 8.32391 19.8833 6.72684 19.1967C2.91099 17.5562 0.468886 13.8906 0.338625 9.73302C0.309761 8.81102 0.294681 7.7261 0.338625 6.80901C0.441871 4.6561 2.10852 2.9148 4.2518 2.71302L10.0133 2.71274V1.00169C10.0133 0.981151 10.0752 0.830908 10.0906 0.801396C10.195 0.600269 10.4078 0.472044 10.6322 0.455206C10.8687 0.437444 11.6096 0.425232 11.8115 0.479908C12.0072 0.532919 12.2885 0.791034 12.2885 1.00169V2.71265H12.2884Z" fill="black"/>
<path d="M20.8602 17.928C21.6307 18.7573 22.9374 18.9541 23.9289 19.4373C24.1246 19.5337 24.1264 19.7806 23.9269 19.8725C22.612 20.4854 21.1046 20.6266 20.3953 22.0565C20.0407 22.7715 19.818 23.5958 19.4806 24.3232C19.2693 24.5419 19.1255 24.4273 19.021 24.1971C18.4363 22.9087 18.2807 21.4637 16.8823 20.7683C16.1694 20.4137 15.3389 20.1935 14.6124 19.8566C14.4356 19.7291 14.471 19.5241 14.6579 19.4265C15.3028 19.1599 15.9704 18.9368 16.6108 18.6604C18.3503 17.91 18.325 16.5845 19.0365 15.0746C19.1423 14.8498 19.3249 14.7744 19.4872 15.0004C19.9455 15.9196 20.1537 17.1675 20.8602 17.9279V17.928Z" fill="black"/>
<path d="M14.7494 12.1733C15.7484 12.1733 16.5583 11.3634 16.5583 10.3644C16.5583 9.36531 15.7484 8.55542 14.7494 8.55542C13.7503 8.55542 12.9404 9.36531 12.9404 10.3644C12.9404 11.3634 13.7503 12.1733 14.7494 12.1733Z" fill="black"/>
<path d="M7.55201 12.1732C8.551 12.1732 9.36085 11.3634 9.36085 10.3644C9.36085 9.36539 8.551 8.55554 7.55201 8.55554C6.55301 8.55554 5.74316 9.36539 5.74316 10.3644C5.74316 11.3634 6.55301 12.1732 7.55201 12.1732Z" fill="black"/>
</g>
</g>
<defs>
<filter id="filter0_d_357_8404" x="-3.68896" y="0.440186" width="31.7651" height="32" filterUnits="userSpaceOnUse" color-interpolation-filters="sRGB">
<feFlood flood-opacity="0" result="BackgroundImageFix"/>
<feColorMatrix in="SourceAlpha" type="matrix" values="0 0 0 0 0 0 0 0 0 0 0 0 0 0 0 0 0 0 127 0" result="hardAlpha"/>
<feOffset dy="4"/>
<feGaussianBlur stdDeviation="2"/>
<feComposite in2="hardAlpha" operator="out"/>
<feColorMatrix type="matrix" values="0 0 0 0 0 0 0 0 0 0 0 0 0 0 0 0 0 0 0.25 0"/>
<feBlend mode="normal" in2="BackgroundImageFix" result="effect1_dropShadow_357_8404"/>
<feBlend mode="normal" in="SourceGraphic" in2="effect1_dropShadow_357_8404" result="shape"/>
</filter>
<clipPath id="clip0_357_8404">
<rect width="23.7651" height="24" fill="white" transform="translate(0.311035 0.440186)"/>
</clipPath>
</defs>
</svg>
