<svg width="25" height="20" viewBox="0 0 25 20" fill="none" xmlns="http://www.w3.org/2000/svg">
<path d="M2.8001 2.8001L10.1293 8.33482L10.1317 8.33684C10.9455 8.93364 11.3527 9.23221 11.7986 9.34756C12.1928 9.4495 12.6071 9.4495 13.0013 9.34756C13.4476 9.23211 13.8559 8.93266 14.6712 8.33482C14.6712 8.33482 19.3722 4.72723 22.0001 2.8001M1.6001 14.5603V5.44033C1.6001 4.09621 1.6001 3.42364 1.86168 2.91025C2.09178 2.45866 2.45866 2.09178 2.91025 1.86168C3.42364 1.6001 4.09621 1.6001 5.44033 1.6001H19.3603C20.7045 1.6001 21.3756 1.6001 21.889 1.86168C22.3406 2.09178 22.7087 2.45866 22.9388 2.91025C23.2001 3.42314 23.2001 4.09489 23.2001 5.43639V14.5644C23.2001 15.9059 23.2001 16.5767 22.9388 17.0896C22.7087 17.5411 22.3406 17.9087 21.889 18.1388C21.3761 18.4001 20.7053 18.4001 19.3638 18.4001H5.43639C4.09489 18.4001 3.42314 18.4001 2.91025 18.1388C2.45866 17.9087 2.09178 17.5411 1.86168 17.0896C1.6001 16.5762 1.6001 15.9045 1.6001 14.5603Z" stroke="#1D1B20" stroke-width="2.4" stroke-linecap="round" stroke-linejoin="round"/>
</svg>
