<svg width="18" height="18" viewBox="0 0 18 18" fill="none" xmlns="http://www.w3.org/2000/svg">
<circle cx="2.5" cy="2.5" r="2.5" transform="matrix(-1 0 0 1 11.5 6.5)" stroke="#1D1B20" stroke-width="1.25"/>
<path d="M12.7499 3.11454L12.4374 3.65581L12.7499 3.11454ZM12.7499 14.8851L12.4374 14.3438L12.7499 14.8851ZM5.2498 14.8851L4.9373 15.4263L4.9373 15.4263L5.2498 14.8851ZM5.2498 3.11454L4.9373 2.57328V2.57328L5.2498 3.11454ZM1.4219 7.06957L1.02447 7.55193L1.4219 7.06957ZM1.13013 6.25237L0.54005 6.04637L1.13013 6.25237ZM3.42641 14.6168L3.28294 14.0085L3.42641 14.6168ZM2.66902 14.4191L2.19441 14.8258L2.66902 14.4191ZM6.94914 17.0791L7.10247 16.4732L6.94914 17.0791ZM6.43563 16.4873L5.82671 16.6281L6.43563 16.4873ZM11.5641 16.4873L12.173 16.6281L11.5641 16.4873ZM11.0506 17.0791L11.2039 17.685L11.0506 17.0791ZM15.3307 14.4191L14.8561 14.0125L15.3307 14.4191ZM14.5734 14.6168L14.4299 15.2251L14.5734 14.6168ZM16.5779 7.06956L16.1804 6.5872L16.5779 7.06956ZM1.13013 11.7475L0.54005 11.9535L1.13013 11.7475ZM1.4219 10.9304L1.02447 10.448L1.4219 10.9304ZM15.3305 3.58054L14.8559 3.98721L15.3305 3.58054ZM2.66925 3.58055L2.19465 3.17388L2.66925 3.58055ZM16.5779 10.9304L16.9753 10.448L16.5779 10.9304ZM11.5642 1.51254L10.9553 1.65344L11.5642 1.51254ZM10.9553 1.65344C11.1434 2.46666 11.6564 3.20489 12.4374 3.65581L13.0624 2.57328C12.5938 2.3027 12.2864 1.86146 12.1731 1.37165L10.9553 1.65344ZM12.4374 3.65581C13.1549 4.07003 13.9697 4.16729 14.7166 3.99119L14.4298 2.77455C13.9805 2.88049 13.4933 2.82205 13.0624 2.57328L12.4374 3.65581ZM17.4597 6.04637C17.0884 4.98276 16.5225 4.01109 15.8051 3.17387L14.8559 3.98721C15.4738 4.70832 15.9605 5.54436 16.2796 6.45837L17.4597 6.04637ZM16.2915 8.99996C16.2915 8.41716 16.5567 7.89682 16.9753 7.55192L16.1804 6.5872C15.486 7.15936 15.0415 8.02802 15.0415 8.99996H16.2915ZM16.9753 10.448C16.5567 10.1031 16.2915 9.58276 16.2915 8.99996H15.0415C15.0415 9.9719 15.486 10.8406 16.1804 11.4127L16.9753 10.448ZM15.8054 14.8258C16.5226 13.9886 17.0884 13.017 17.4597 11.9535L16.2796 11.5415C15.9605 12.4555 15.4739 13.2914 14.8561 14.0125L15.8054 14.8258ZM13.0624 15.4263C13.4934 15.1776 13.9806 15.1191 14.4299 15.2251L14.7168 14.0085C13.9699 13.8323 13.1549 13.9296 12.4374 14.3438L13.0624 15.4263ZM12.173 16.6281C12.2863 16.1383 12.5937 15.697 13.0624 15.4263L12.4374 14.3438C11.6563 14.7948 11.1433 15.5331 10.9552 16.3465L12.173 16.6281ZM8.99988 17.9583C9.75964 17.9583 10.4982 17.8636 11.2039 17.685L10.8973 16.4732C10.2909 16.6266 9.6554 16.7083 8.99988 16.7083V17.9583ZM6.79582 17.685C7.50158 17.8636 8.24011 17.9583 8.99988 17.9583V16.7083C8.34436 16.7083 7.7088 16.6266 7.10247 16.4732L6.79582 17.685ZM4.9373 15.4263C5.406 15.6969 5.7134 16.1383 5.82671 16.6281L7.04456 16.3465C6.85644 15.5331 6.3434 14.7948 5.5623 14.3438L4.9373 15.4263ZM3.56987 15.2251C4.0192 15.1191 4.50639 15.1776 4.9373 15.4263L5.5623 14.3438C4.8448 13.9296 4.02988 13.8323 3.28294 14.0085L3.56987 15.2251ZM0.54005 11.9535C0.911316 13.017 1.47713 13.9886 2.19441 14.8258L3.14364 14.0125C2.52585 13.2914 2.03925 12.4554 1.7202 11.5415L0.54005 11.9535ZM1.70821 8.99996C1.70821 9.58276 1.44306 10.1031 1.02447 10.448L1.81933 11.4127C2.51375 10.8406 2.95821 9.9719 2.95821 8.99996H1.70821ZM1.02447 7.55193C1.44306 7.89682 1.70821 8.41716 1.70821 8.99996H2.95821C2.95821 8.02802 2.51375 7.15936 1.81933 6.5872L1.02447 7.55193ZM2.19465 3.17388C1.47726 4.0111 0.911357 4.98277 0.54005 6.04637L1.7202 6.45837C2.03928 5.54436 2.52596 4.70832 3.14385 3.98721L2.19465 3.17388ZM4.9373 2.57328C4.50642 2.82204 4.01928 2.88049 3.56998 2.77455L3.28313 3.9912C4.03002 4.16729 4.84486 4.07002 5.5623 3.65581L4.9373 2.57328ZM5.82667 1.37165C5.71333 1.86146 5.40595 2.3027 4.9373 2.57328L5.5623 3.65581C6.34331 3.20489 6.85632 2.46667 7.04449 1.65344L5.82667 1.37165ZM8.99988 0.041626C8.24009 0.041626 7.50153 0.136356 6.79574 0.314962L7.1024 1.52676C7.70876 1.37332 8.34434 1.29163 8.99988 1.29163V0.041626ZM11.204 0.314954C10.4982 0.136353 9.75967 0.041626 8.99988 0.041626V1.29163C9.65542 1.29163 10.291 1.37331 10.8973 1.52676L11.204 0.314954ZM7.04449 1.65344C7.0575 1.59722 7.07954 1.55756 7.09664 1.53677C7.11133 1.5189 7.11395 1.52384 7.1024 1.52676L6.79574 0.314962C6.21976 0.46072 5.92235 0.95815 5.82667 1.37165L7.04449 1.65344ZM1.81933 6.5872C1.7686 6.5454 1.73911 6.50018 1.72728 6.46993C1.71733 6.44449 1.72465 6.44563 1.7202 6.45837L0.54005 6.04637C0.318376 6.68136 0.661831 7.25314 1.02447 7.55193L1.81933 6.5872ZM3.28294 14.0085C3.22692 14.0217 3.18169 14.0195 3.15547 14.0134C3.13293 14.0082 3.13603 14.0036 3.14364 14.0125L2.19441 14.8258C2.58027 15.2761 3.1569 15.3225 3.56987 15.2251L3.28294 14.0085ZM7.10247 16.4732C7.11401 16.4761 7.11139 16.481 7.0967 16.4632C7.0796 16.4424 7.05756 16.4027 7.04456 16.3465L5.82671 16.6281C5.92236 17.0417 6.21977 17.5392 6.79582 17.685L7.10247 16.4732ZM10.9552 16.3465C10.9422 16.4027 10.9201 16.4424 10.903 16.4632C10.8883 16.481 10.8857 16.4761 10.8973 16.4732L11.2039 17.685C11.78 17.5392 12.0774 17.0417 12.173 16.6281L10.9552 16.3465ZM14.8561 14.0125C14.8637 14.0036 14.8668 14.0082 14.8443 14.0134C14.8181 14.0195 14.7728 14.0217 14.7168 14.0085L14.4299 15.2251C14.8429 15.3225 15.4195 15.2761 15.8054 14.8258L14.8561 14.0125ZM16.2796 6.45837C16.2751 6.44562 16.2824 6.44449 16.2725 6.46993C16.2607 6.50017 16.2312 6.5454 16.1804 6.5872L16.9753 7.55192C17.3379 7.25314 17.6814 6.68136 17.4597 6.04637L16.2796 6.45837ZM1.7202 11.5415C1.72465 11.5543 1.71733 11.5554 1.72728 11.53C1.73911 11.4997 1.7686 11.4545 1.81933 11.4127L1.02447 10.448C0.661831 10.7468 0.318376 11.3186 0.54005 11.9535L1.7202 11.5415ZM14.7166 3.99119C14.7726 3.97798 14.8179 3.98015 14.8441 3.98626C14.8666 3.99151 14.8635 3.99609 14.8559 3.98721L15.8051 3.17387C15.4193 2.72357 14.8427 2.67719 14.4298 2.77455L14.7166 3.99119ZM3.14385 3.98721C3.13623 3.9961 3.13313 3.99152 3.15568 3.98626C3.18189 3.98016 3.22711 3.97799 3.28313 3.9912L3.56998 2.77455C3.15704 2.67719 2.58049 2.72358 2.19465 3.17388L3.14385 3.98721ZM16.1804 11.4127C16.2312 11.4545 16.2607 11.4997 16.2725 11.53C16.2824 11.5554 16.2751 11.5543 16.2796 11.5415L17.4597 11.9535C17.6814 11.3186 17.3379 10.7468 16.9753 10.448L16.1804 11.4127ZM12.1731 1.37165C12.0774 0.958144 11.78 0.460711 11.204 0.314954L10.8973 1.52676C10.8858 1.52383 10.8884 1.51889 10.9031 1.53676C10.9202 1.55756 10.9422 1.59722 10.9553 1.65344L12.1731 1.37165Z" fill="#1D1B20"/>
</svg>
